#!OML:ASF I:\Actors\actors\Patient Classification 2\Patient 1\Session 1\actor1.ASF
:FULLY-SPECIFIED
:DEGREES
476
root -0.776643 18.7638 5.48902 15.1255 2.49116 -1.78331
lowerback 36.6914 -1.92486 5.60809
upperback 7.20034 -0.0295946 2.06752
thorax -10.176 -0.131982 -0.717377
lowerneck 1.115 -4.49281 -3.27993
upperneck -5.92059 -5.76785 7.27419
head -1.74758 -2.99307 3.00928
rclavicle -4.37326e-015 8.34896e-015
rhumerus -86.3963 19.3182 -103.707
rradius 116.166
rwrist -5.87111
rhand -18.3398 -37.4594
rfingers 7.12502
rthumb 7.94241 -67.2901
lclavicle -4.37326e-015 8.34896e-015
lhumerus -85.2345 -23.4836 112.84
lradius 114.394
lwrist 27.3522
lhand -27.0116 -28.6475
lfingers 7.12502
lthumb -0.431276 1.33183
rfemur -18.3317 -4.03228 16.2295
rtibia 18.2398
rfoot -17.6978 -10.9358
rtoes -13.8248
lfemur -29.3614 -0.570019 -11.3573
ltibia 32.9783
lfoot -16.3852 6.25863
ltoes -57.1249
477
root -0.7715 18.7395 5.4415 16.1111 2.5282 -1.64557
lowerback 36.8367 -2.14953 6.11188
upperback 7.14468 -0.0981548 2.12621
thorax -10.2836 -0.176711 -0.886066
lowerneck 0.0781852 -4.77883 -3.69738
upperneck -4.79342 -6.1756 7.77196
head -1.14849 -3.16723 3.18387
rclavicle -5.96354e-015 -1.43125e-014
rhumerus -86.9125 18.8527 -103.754
rradius 116.697
rwrist -5.43356
rhand -18.9346 -37.003
rfingers 7.12502
rthumb 7.3683 -66.8547
lclavicle -5.96354e-015 -1.43125e-014
lhumerus -85.955 -23.5072 112.921
lradius 114.7
lwrist 28.1077
lhand -27.8978 -28.8388
lfingers 7.12502
lthumb -1.28725 1.13705
rfemur -20.1169 -4.13004 16.1368
rtibia 19.2621
rfoot -18.0574 -10.8076
rtoes -14.0051
lfemur -30.8125 -0.537964 -11.4486
ltibia 33.3244
lfoot -16.5714 6.02175
ltoes -57.2776
478
root -0.765699 18.7087 5.40382 17.0137 2.51259 -1.53181
lowerback 36.7889 -2.30856 6.53437
upperback 6.88808 -0.123232 2.16412
thorax -10.5487 -0.207778 -1.05328
lowerneck -0.0714968 -4.73369 -3.85738
upperneck -4.01365 -6.15395 7.59733
head -0.874476 -3.13719 3.12892
rclavicle -9.14409e-015 -1.23246e-014
rhumerus -87.361 18.4717 -103.822
rradius 116.972
rwrist -5.16972
rhand -19.2446 -36.7484
rfingers 7.12502
rthumb 7.069 -66.6104
lclavicle -9.14409e-015 -1.23246e-014
lhumerus -86.4983 -23.6544 113.066
lradius 114.531
lwrist 28.5257
lhand -28.2288 -29.4329
lfingers 7.12502
lthumb -1.6069 0.540826
rfemur -21.6049 -4.08997 16.0639
rtibia 19.9519
rfoot -18.6381 -10.7509
rtoes -13.6186
lfemur -32.089 -0.661791 -11.5133
ltibia 33.6287
lfoot -16.8219 6.22256
ltoes -57.3847
479
root -0.758582 18.6789 5.3761 17.7594 2.47535 -1.42631
lowerback 36.1791 -2.36656 6.70029
upperback 6.78899 -0.163858 2.3117
thorax -10.439 -0.229481 -0.97377
lowerneck -0.667789 -4.95682 -4.12167
upperneck -3.12945 -6.48723 7.31794
head -0.469362 -3.2763 3.03956
rclavicle 1.27222e-014 4.09496e-014
rhumerus -87.3093 18.5848 -103.685
rradius 116.963
rwrist -4.9902
rhand -19.3452 -36.7712
rfingers 7.12502
rthumb 6.97191 -66.6364
lclavicle 1.27222e-014 4.09496e-014
lhumerus -86.4427 -23.8679 113.312
lradius 114.196
lwrist 28.5758
lhand -28.2603 -29.6052
lfingers 7.12502
lthumb -1.63727 0.368244
rfemur -22.7907 -3.92508 15.9741
rtibia 20.464
rfoot -19.3046 -10.7709
rtoes -13.0475
lfemur -33.1554 -0.796271 -11.5908
ltibia 33.918
lfoot -17.1145 6.43871
ltoes -57.2035
480
root -0.745344 18.6592 5.35809 17.9556 2.32059 -1.38958
lowerback 35.8362 -2.45075 6.81213
upperback 6.72962 -0.243813 2.41112
thorax -10.3823 -0.268602 -0.8986
lowerneck -1.18597 -5.23069 -4.78939
upperneck -2.47346 -6.8631 7.6566
head -0.110713 -3.44404 3.24073
rclavicle 3.97569e-015 -4.6118e-014
rhumerus -87.009 19.119 -103.643
rradius 116.671
rwrist -4.82845
rhand -19.443 -37.1241
rfingers 7.12502
rthumb 6.87756 -66.9923
lclavicle 3.97569e-015 -4.6118e-014
lhumerus -86.1103 -24.1087 113.541
lradius 113.883
lwrist 28.3805
lhand -27.9352 -29.2886
lfingers 7.12502
lthumb -1.32336 0.687074
rfemur -23.2852 -3.66855 15.8618
rtibia 20.8388
rfoot -19.7934 -10.7698
rtoes -12.5808
lfemur -33.555 -1.00506 -11.6379
ltibia 34.1853
lfoot -17.4385 6.74674
ltoes -56.9871
481
root -0.728033 18.6469 5.34908 18.1979 2.05251 -1.4021
lowerback 35.1482 -2.45044 7.05939
upperback 6.50132 -0.224969 2.28268
thorax -10.3793 -0.270281 -1.18235
lowerneck -1.73206 -5.56433 -4.66789
upperneck -1.43452 -7.34049 7.49721
head 0.33469 -3.66111 3.1173
rclavicle -7.95139e-016 2.46493e-014
rhumerus -86.7628 19.4291 -103.988
rradius 116.546
rwrist -4.8509
rhand -19.0244 -39.4675
rfingers 7.12502
rthumb 7.28162 -69.3222
lclavicle -7.95139e-016 2.46493e-014
lhumerus -86.062 -24.7532 113.751
lradius 113.637
lwrist 28.0107
lhand -27.4682 -28.4723
lfingers 7.12502
lthumb -0.872279 1.50563
rfemur -23.7837 -3.45455 15.7578
rtibia 21.1137
rfoot -19.9199 -10.6911
rtoes -12.2255
lfemur -33.9453 -1.24629 -11.6466
ltibia 34.4322
lfoot -17.6808 7.28704
ltoes -57.0939
482
root -0.707553 18.642 5.35312 18.238 1.67839 -1.55225
lowerback 34.5118 -2.47124 7.31373
upperback 6.25764 -0.230941 2.12886
thorax -10.4097 -0.285843 -1.48629
lowerneck -2.469 -5.80686 -5.27366
upperneck -0.34826 -7.684 8.12819
head 0.891107 -3.80233 3.39453
rclavicle 5.1684e-015 -1.74931e-014
rhumerus -86.49 20.1294 -104.332
rradius 116.114
rwrist -4.61104
rhand -18.6857 -40.8447
rfingers 7.12502
rthumb 7.60852 -70.6879
lclavicle 5.1684e-015 -1.74931e-014
lhumerus -85.7738 -25.2179 113.85
lradius 113.366
lwrist 27.5462
lhand -26.9998 -27.3924
lfingers 7.12502
lthumb -0.419913 2.58689
rfemur -23.9351 -3.32018 15.7809
rtibia 21.1291
rfoot -19.5697 -10.5228
rtoes -12.3664
lfemur -33.9488 -1.30931 -11.572
ltibia 34.5049
lfoot -17.793 7.75982
ltoes -57.252
483
root -0.687995 18.6414 5.36785 18.1381 1.12376 -1.77226
lowerback 33.7792 -2.39498 7.48874
upperback 5.96769 -0.157851 1.94032
thorax -10.564 -0.270684 -1.84684
lowerneck -3.0528 -6.09386 -5.40975
upperneck 0.857768 -8.10804 8.32839
head 1.43373 -3.98449 3.44094
rclavicle 3.97569e-016 -2.26615e-014
rhumerus -86.5593 20.6926 -104.788
rradius 115.613
rwrist -4.30812
rhand -18.4105 -41.2515
rfingers 7.12502
rthumb 7.87418 -71.0849
lclavicle 3.97569e-016 -2.26615e-014
lhumerus -85.753 -25.5049 113.99
lradius 113.125
lwrist 27.2344
lhand -26.4481 -26.3638
lfingers 7.12502
lthumb 0.112994 3.61589
rfemur -23.8532 -3.22176 15.8626
rtibia 20.9419
rfoot -18.9321 -10.2923
rtoes -12.9485
lfemur -33.6298 -1.14719 -11.4787
ltibia 34.425
lfoot -17.9376 8.08388
ltoes -57.1724
484
root -0.707826 18.6623 5.43659 16.9154 0.502852 -1.99375
lowerback 33.9702 -2.20883 6.97834
upperback 5.86963 -0.0915348 1.8772
thorax -10.754 -0.235899 -1.6689
lowerneck -4.08372 -6.35144 -5.32638
upperneck 2.29838 -8.49505 8.24291
head 2.11325 -4.13586 3.33524
rclavicle -3.18055e-015 -1.98785e-015
rhumerus -86.6788 21.3711 -105.274
rradius 115.103
rwrist -4.10397
rhand -18.208 -40.6975
rfingers 7.12502
rthumb 8.06959 -70.5234
lclavicle -3.18055e-015 -1.98785e-015
lhumerus -85.7038 -25.5111 113.967
lradius 112.937
lwrist 27.1096
lhand -25.9824 -25.732
lfingers 7.12502
lthumb 0.562766 4.24701
rfemur -22.0756 -2.56769 15.9504
rtibia 20.4628
rfoot -18.916 -10.1721
rtoes -13.0933
lfemur -31.62 -0.621597 -11.3869
ltibia 34.1114
lfoot -18.3808 7.82266
ltoes -57.0202
485
root -0.718347 18.673 5.50184 15.78 -0.129817 -2.1708
lowerback 33.9419 -2.03294 6.44751
upperback 5.76246 -0.0675175 1.80393
thorax -10.873 -0.216897 -1.47756
lowerneck -4.82465 -6.58985 -5.59314
upperneck 3.40818 -8.85395 8.6014
head 2.68816 -4.27726 3.46213
rclavicle 1.07344e-014 2.94201e-014
rhumerus -86.7401 21.9996 -105.541
rradius 114.929
rwrist -5.18289
rhand -17.3186 -40.8752
rfingers 7.12502
rthumb 8.9279 -70.6663
lclavicle 1.07344e-014 2.94201e-014
lhumerus -85.7321 -25.4734 113.908
lradius 112.624
lwrist 27.173
lhand -25.6745 -26.0908
lfingers 7.12502
lthumb 0.860115 3.88719
rfemur -20.3 -2.00591 15.9933
rtibia 19.7278
rfoot -18.7845 -10.0375
rtoes -13.3043
lfemur -29.6602 -0.199687 -11.3378
ltibia 33.6472
lfoot -18.8025 7.69045
ltoes -56.8533
486
root -0.723475 18.6779 5.56399 14.6517 -0.698333 -2.27388
lowerback 33.8343 -1.87859 6.06153
upperback 5.6504 -0.0273758 1.71497
thorax -10.9626 -0.193106 -1.38599
lowerneck -6.73375 -6.79319 -5.43584
upperneck 5.8616 -9.20741 8.48486
head 3.49372 -4.34825 2.94856
rclavicle -7.55382e-015 -2.06736e-014
rhumerus -86.7714 22.3765 -105.643
rradius 114.577
rwrist -5.59173
rhand -16.6755 -40.557
rfingers 7.12502
rthumb 9.54842 -70.3206
lclavicle -7.55382e-015 -2.06736e-014
lhumerus -85.8479 -25.5795 113.925
lradius 112.042
lwrist 27.3631
lhand -25.3747 -27.7269
lfingers 7.12502
lthumb 1.1497 2.24971
rfemur -18.4363 -1.57236 15.9766
rtibia 18.8066
rfoot -18.6077 -9.89788
rtoes -13.6918
lfemur -27.6808 0.00780388 -11.3479
ltibia 33.0512
lfoot -19.1733 7.8107
ltoes -56.8372
